# xmcd
#
# Track frame offsets: 
#        150
#        13383
#        25196
#        39700
#        52832
#        67516
#        83829
#        95775
#        115715
#        130239
#        143959
#        155743
#        174381
#
# Disc length: 2515 seconds
#
# Revision: 0
# Processed by: cddbd v1.5.2PL0 Copyright (c) Steve Scherf et al.
# Submitted via: ExactAudioCopyFreeDBPlugin 1.0
#
DISCID=a809d10d
DTITLE=Karla Crawford - Single Girl
DYEAR=2001
DGENRE=Country
TTITLE0=The Fastest Love Alive
TTITLE1=This Love
TTITLE2=Hunger Pain
TTITLE3=I Don`t Love You Like You Do
TTITLE4=The Single Girl
TTITLE5=Homecoming Queen
TTITLE6=She Loves You
TTITLE7=Louisiana Rain
TTITLE8=Giving A Little Time
TTITLE9=Between The Stones and Jones
TTITLE10=Tell Me Why
TTITLE11=Where`s The Fire
TTITLE12=This Will Be
EXTD=
EXTT0=
EXTT1=
EXTT2=
EXTT3=
EXTT4=
EXTT5=
EXTT6=
EXTT7=
EXTT8=
EXTT9=
EXTT10=
EXTT11=
EXTT12=
PLAYORDER=
